<svg width="34" height="35" viewBox="0 0 34 35" fill="none" xmlns="http://www.w3.org/2000/svg">
<g clip-path="url(#clip0_209_1032)">
<path d="M33.2119 0L18.6228 11.8532L21.3358 4.86777L33.2119 0Z" fill="#E17726"/>
<path d="M0.822298 0.0139999L12.6666 4.86865L15.2427 11.9456L0.822298 0.0139999ZM27.3408 25.2085L33.789 25.3432L31.5355 33.7493L23.6672 31.3706L27.3408 25.2085ZM6.65914 25.2085L10.3191 31.3706L2.46413 33.7495L0.224243 25.3432L6.65914 25.2085Z" fill="#E27625"/>
<path d="M14.8923 10.143L15.1558 19.4884L7.27063 19.0945L9.51357 15.379L9.54199 15.3433L14.8923 10.143ZM19.0259 10.0387L24.4579 15.3436L24.486 15.3791L26.729 19.0947L18.8455 19.4884L19.0259 10.0387ZM10.5499 25.2356L14.8554 28.9192L9.85397 31.5706L10.5499 25.2356ZM23.4508 25.235L24.1322 31.5707L19.1447 28.9189L23.4508 25.235Z" fill="#E27625"/>
<path d="M19.2548 28.572L24.3159 31.2629L19.6081 33.7196L19.657 32.0959L19.2548 28.572ZM14.7436 28.5731L14.3573 32.0693L14.389 33.7177L9.67017 31.2629L14.7436 28.5731Z" fill="#D5BFB2"/>
<path d="M10.8941 25.2044L10.1662 31.7727L6.26514 25.348L10.8941 25.2044ZM23.1062 25.2045L27.7352 25.348L23.8195 31.773L23.1062 25.2045ZM26.843 18.7231L23.4742 22.493L20.8768 21.1897L19.6332 24.0603L18.818 19.124L26.843 18.7231ZM7.15525 18.7231L15.1818 19.124L14.3664 24.0603L13.1226 21.1902L10.539 22.4932L7.15525 18.7231Z" fill="#CC6228"/>
<path d="M8.90088 30.4585L14.045 33.1348L14.0232 31.9919L14.4536 31.577H19.5449L19.9909 31.9904L19.9579 33.1325L25.0695 30.4652L22.5822 32.7221L19.5746 34.9902H14.4123L11.4068 32.7127L8.90088 30.4585Z" fill="#C0AC9D"/>
<path d="M18.8865 28.2157L19.6138 28.7799L20.04 32.5138L19.4232 31.942H14.5787L13.9736 32.5254L14.3859 28.7802L15.1134 28.2157H18.8865Z" fill="#161616"/>
<path d="M32.2487 0.328125L34 6.09685L32.9063 11.9297L33.6851 12.5894L32.6312 13.4722L33.4233 14.1439L32.3745 15.1926L33.0184 15.7046L31.3096 17.8959L24.3011 15.6552L24.2404 15.6195L19.1899 10.9414L32.2487 0.328125ZM1.75127 0.328125L14.8102 10.9414L9.75959 15.6195L9.6989 15.6552L2.69038 17.8959L0.981617 15.7046L1.62496 15.1931L0.576805 14.1439L1.3673 13.473L0.297633 12.5876L1.1058 11.9276L0 6.09714L1.75127 0.328125Z" fill="#763E1A"/>
<path d="M23.9584 15.1652L31.3843 17.5392L33.7969 25.7039H27.432L23.0465 25.7645L26.2358 18.9384L23.9584 15.1652ZM10.0417 15.1652L7.76388 18.9384L10.9536 25.7645L6.57016 25.7039H0.216675L2.61567 17.5394L10.0417 15.1652ZM21.6995 4.82883L19.6224 10.9887L19.1816 19.3099L19.013 21.9182L18.9996 28.581H15.0004L14.9874 21.9307L14.8182 19.3078L14.3773 10.9887L12.3005 4.82883H21.6995Z" fill="#F5841F"/>
<g clip-path="url(#clip1_209_1032)">
<path d="M13.2822 20.7082L14.6048 23.7602L10.1021 22.3118L13.2822 20.7082ZM20.7178 20.7085L23.913 22.3118L19.3955 23.7598L20.7178 20.7085Z" fill="#233447"/>
<path d="M6.92834 17.9494L10.7398 22.1962L10.8718 26.3888L6.92834 17.9494ZM27.0756 17.9418L23.125 26.3962L23.2737 22.1962L27.0756 17.9418ZM14.9955 18.2081L15.1489 19.2683L15.528 21.9095L15.2842 30.0215L14.1321 23.505L14.1317 23.4376L14.9955 18.2081ZM19.0026 18.1934L19.8687 23.4376L19.8683 23.505L18.7132 30.0378L18.6675 28.4038L18.4873 21.8614L19.0026 18.1934Z" fill="#E27525"/>
<path d="M23.6125 22.0275L23.4835 25.6701L19.4628 29.1099L18.6499 28.4793L19.561 23.3263L23.6125 22.0275ZM10.4015 22.0275L14.4389 23.3263L15.3499 28.4793L14.5371 29.1099L10.5162 25.6698L10.4015 22.0275Z" fill="#F5841F"/>
</g>
</g>
<defs>
<clipPath id="clip0_209_1032">
<rect width="34" height="35" fill="white"/>
</clipPath>
<clipPath id="clip1_209_1032">
<rect width="119" height="22.1519" fill="white" transform="translate(3.40002 8.41772)"/>
</clipPath>
</defs>
</svg>
