<svg width="30" height="31" viewBox="0 0 30 31" fill="none" xmlns="http://www.w3.org/2000/svg">
<mask id="mask0_458_1072" style="mask-type:alpha" maskUnits="userSpaceOnUse" x="0" y="0" width="30" height="31">
<g clip-path="url(#clip0_458_1072)">
<path d="M29.3703 16.8242C30.2073 16.0918 30.2073 14.9023 29.3703 14.1699L18.656 4.79492C17.8189 4.0625 16.4595 4.0625 15.6225 4.79492C14.7854 5.52734 14.7854 6.7168 15.6225 7.44922L22.6872 13.625L2.14258 13.625C0.957312 13.625 -0.000278473 14.4629 -0.000278473 15.5C-0.000278473 16.5371 0.957312 17.375 2.14258 17.375L22.6805 17.375L15.6292 23.5508C14.7921 24.2832 14.7921 25.4727 15.6292 26.2051C16.4662 26.9375 17.8256 26.9375 18.6627 26.2051L29.377 16.8301L29.3703 16.8242Z" fill="black"/>
</g>
</mask>
<g mask="url(#mask0_458_1072)">
<rect x="-4.7998" y="0.5" width="38.4" height="30" fill="#5DD44A"/>
</g>
<defs>
<clipPath id="clip0_458_1072">
<rect width="30" height="30" fill="white" transform="matrix(-1 0 0 -1 30 30.5)"/>
</clipPath>
</defs>
</svg>
