<svg width="18" height="18" viewBox="0 0 18 18" fill="none" xmlns="http://www.w3.org/2000/svg">
<path d="M13.0005 11H12.2105L11.9305 10.73C12.5554 10.004 13.0122 9.14878 13.268 8.22562C13.5239 7.30246 13.5725 6.33416 13.4105 5.39001C12.9405 2.61001 10.6205 0.390005 7.82046 0.0500053C6.83608 -0.0745289 5.83625 0.027777 4.89749 0.349094C3.95872 0.670412 3.10591 1.20222 2.40429 1.90384C1.70268 2.60545 1.17087 3.45827 0.849552 4.39703C0.528235 5.33579 0.425929 6.33562 0.550463 7.32C0.890463 10.12 3.11046 12.44 5.89046 12.91C6.83462 13.0721 7.80292 13.0234 8.72608 12.7676C9.64924 12.5117 10.5044 12.055 11.2305 11.43L11.5005 11.71V12.5L15.7505 16.75C16.1605 17.16 16.8305 17.16 17.2405 16.75C17.6505 16.34 17.6505 15.67 17.2405 15.26L13.0005 11ZM7.00046 11C4.51046 11 2.50046 8.99001 2.50046 6.50001C2.50046 4.01 4.51046 2.00001 7.00046 2.00001C9.49046 2.00001 11.5005 4.01 11.5005 6.50001C11.5005 8.99001 9.49046 11 7.00046 11Z" fill="black"/>
</svg>
