<svg width="24" height="24" viewBox="0 0 24 24" fill="none" xmlns="http://www.w3.org/2000/svg">
<mask id="mask0_89_21" style="mask-type:alpha" maskUnits="userSpaceOnUse" x="0" y="0" width="24" height="24">
<g clip-path="url(#clip0_89_21)">
<path d="M10.5 2C12.096 1.99989 13.6597 2.44911 15.0123 3.29623C16.3649 4.14336 17.4517 5.35417 18.1482 6.79009C18.8448 8.22602 19.123 9.82905 18.9511 11.4157C18.7792 13.0024 18.164 14.5086 17.176 15.762L20.828 19.414C21.0102 19.6026 21.111 19.8552 21.1087 20.1174C21.1064 20.3796 21.0012 20.6304 20.8158 20.8158C20.6304 21.0012 20.3796 21.1064 20.1174 21.1087C19.8552 21.111 19.6026 21.0102 19.414 20.828L15.762 17.176C14.6975 18.015 13.4477 18.5872 12.117 18.8449C10.7864 19.1026 9.41333 19.0384 8.11252 18.6576C6.81171 18.2768 5.62084 17.5904 4.63925 16.6557C3.65766 15.7211 2.91382 14.5652 2.46979 13.2846C2.02576 12.004 1.89442 10.6357 2.08672 9.29404C2.27902 7.95235 2.78939 6.67609 3.57525 5.57175C4.3611 4.46742 5.39966 3.56702 6.60427 2.94569C7.80887 2.32436 9.1446 2.00012 10.5 2ZM10.5 4C8.7761 4 7.1228 4.68482 5.90382 5.90381C4.68483 7.12279 4.00001 8.77609 4.00001 10.5C4.00001 12.2239 4.68483 13.8772 5.90382 15.0962C7.1228 16.3152 8.7761 17 10.5 17C12.2239 17 13.8772 16.3152 15.0962 15.0962C16.3152 13.8772 17 12.2239 17 10.5C17 8.77609 16.3152 7.12279 15.0962 5.90381C13.8772 4.68482 12.2239 4 10.5 4ZM10.5 5C11.9587 5 13.3576 5.57946 14.3891 6.61091C15.4205 7.64236 16 9.04131 16 10.5C16 11.9587 15.4205 13.3576 14.3891 14.3891C13.3576 15.4205 11.9587 16 10.5 16C9.04132 16 7.64237 15.4205 6.61092 14.3891C5.57947 13.3576 5.00001 11.9587 5.00001 10.5C5.00001 9.04131 5.57947 7.64236 6.61092 6.61091C7.64237 5.57946 9.04132 5 10.5 5Z" fill="black"/>
</g>
</mask>
<g mask="url(#mask0_89_21)">
<rect x="-1" y="1" width="27" height="24" fill="#E8E0E0"/>
</g>
<defs>
<clipPath id="clip0_89_21">
<rect width="24" height="24" fill="white"/>
</clipPath>
</defs>
</svg>
