<svg width="19" height="18" viewBox="0 0 19 18" fill="none" xmlns="http://www.w3.org/2000/svg">
<path d="M1.5 6H17.5L16.665 15.181C16.6198 15.6779 16.3906 16.14 16.0222 16.4766C15.6538 16.8131 15.173 16.9998 14.674 17H4.326C3.82704 16.9998 3.34617 16.8131 2.9778 16.4766C2.60942 16.14 2.38016 15.6779 2.335 15.181L1.5 6Z" stroke="white" stroke-width="2" stroke-linejoin="round"/>
<path d="M5.5 8V5C5.5 3.93913 5.92143 2.92172 6.67157 2.17157C7.42172 1.42143 8.43913 1 9.5 1C10.5609 1 11.5783 1.42143 12.3284 2.17157C13.0786 2.92172 13.5 3.93913 13.5 5V8" stroke="white" stroke-width="2" stroke-linecap="round"/>
</svg>
