<svg width="144" height="143" viewBox="0 0 144 143" fill="none" xmlns="http://www.w3.org/2000/svg">
<path d="M38.7213 71.3115L67.2459 95.082L105.279 47.541M72 137.869C63.2595 137.869 54.6047 136.147 46.5296 132.802C38.4545 129.458 31.1172 124.555 24.9368 118.375C18.7564 112.194 13.8538 104.857 10.509 96.7819C7.16418 88.7068 5.44263 80.0519 5.44263 71.3115C5.44263 62.5711 7.16418 53.9162 10.509 45.8411C13.8538 37.766 18.7564 30.4288 24.9368 24.2483C31.1172 18.0679 38.4545 13.1653 46.5296 9.82053C54.6047 6.47571 63.2595 4.75415 72 4.75415C89.6521 4.75415 106.581 11.7664 119.063 24.2483C131.545 36.7303 138.557 53.6594 138.557 71.3115C138.557 88.9636 131.545 105.893 119.063 118.375C106.581 130.857 89.6521 137.869 72 137.869Z" stroke="#207241" stroke-width="9.50819"/>
</svg>
